HIERARCHY
ROOT Root
{
  OFFSET 0.0 0.0 0.0
  CHANNELS 6 Xposition Yposition Zposition Zrotation Yrotation Xrotation
  JOINT Hips
  {
    OFFSET 0.0 100.0 0.0
    CHANNELS 6 Xposition Yposition Zposition Zrotation Yrotation Xrotation
    JOINT Spine1
    {
      OFFSET 5.003913 -0.037094 -0.013727
      CHANNELS 3 Zrotation Yrotation Xrotation
      JOINT Spine2
      {
        OFFSET 7.125363 -1e-06 0.0
        CHANNELS 3 Zrotation Yrotation Xrotation
        JOINT Chest
        {
          OFFSET 7.594027 1e-06 0.0
          CHANNELS 3 Zrotation Yrotation Xrotation
          JOINT Neck1
          {
            OFFSET 26.313086 -0.460272 -0.181672
            CHANNELS 3 Zrotation Yrotation Xrotation
            JOINT Neck2
            {
              OFFSET 8.045911 0.0 0.0
              CHANNELS 3 Zrotation Yrotation Xrotation
              JOINT Head
              {
                OFFSET 6.432774 0.0 0.0
                CHANNELS 3 Zrotation Yrotation Xrotation
                JOINT HeadEnd
                {
                  OFFSET 16.169773 0.06451 0.00362
                  CHANNELS 3 Zrotation Yrotation Xrotation
                }
                JOINT Jaw
                {
                  OFFSET 0.108741 3.12938 0.002639
                  CHANNELS 3 Zrotation Yrotation Xrotation
                }
                JOINT LeftEye
                {
                  OFFSET 4.45173 8.166359 3.206392
                  CHANNELS 3 Zrotation Yrotation Xrotation
                }
                JOINT RightEye
                {
                  OFFSET 4.436895 8.135758 -3.222429
                  CHANNELS 3 Zrotation Yrotation Xrotation
                }
              }
            }
          }
          JOINT LeftShoulder
          {
            OFFSET 23.218927 5.195579 1.621656
            CHANNELS 3 Zrotation Yrotation Xrotation
            JOINT LeftArm
            {
              OFFSET 15.902118 2e-06 -2e-06
              CHANNELS 3 Zrotation Yrotation Xrotation
              JOINT LeftForeArm
              {
                OFFSET 28.739307 0.0 -1e-06
                CHANNELS 3 Zrotation Yrotation Xrotation
                JOINT LeftHand
                {
                  OFFSET 27.093981 -4e-06 0.0
                  CHANNELS 3 Zrotation Yrotation Xrotation
                  JOINT LeftHandThumb1
                  {
                    OFFSET 2.276781 3.380274 0.83384
                    CHANNELS 3 Zrotation Yrotation Xrotation
                    JOINT LeftHandThumb2
                    {
                      OFFSET 4.705309 -1e-06 -1e-06
                      CHANNELS 3 Zrotation Yrotation Xrotation
                      JOINT LeftHandThumb3
                      {
                        OFFSET 2.798515 0.0 3e-06
                        CHANNELS 3 Zrotation Yrotation Xrotation
                        JOINT LeftHandThumbEnd
                        {
                          OFFSET 3.180793 4e-06 -4e-06
                          CHANNELS 3 Zrotation Yrotation Xrotation
                        }
                      }
                    }
                  }
                  JOINT LeftHandIndex1
                  {
                    OFFSET 3.247786 2.352677 0.137192
                    CHANNELS 3 Zrotation Yrotation Xrotation
                    JOINT LeftHandIndex2
                    {
                      OFFSET 6.367095 1e-06 0.0
                      CHANNELS 3 Zrotation Yrotation Xrotation
                      JOINT LeftHandIndex3
                      {
                        OFFSET 3.662364 0.0 0.0
                        CHANNELS 3 Zrotation Yrotation Xrotation
                        JOINT LeftHandIndex4
                        {
                          OFFSET 2.329242 4e-06 -4e-06
                          CHANNELS 3 Zrotation Yrotation Xrotation
                          JOINT LeftHandIndexEnd
                          {
                            OFFSET 2.767823 1e-06 0.0
                            CHANNELS 3 Zrotation Yrotation Xrotation
                          }
                        }
                      }
                    }
                  }
                  JOINT LeftHandMiddle1
                  {
                    OFFSET 3.163612 0.945023 -0.406112
                    CHANNELS 3 Zrotation Yrotation Xrotation
                    JOINT LeftHandMiddle2
                    {
                      OFFSET 6.276789 3e-06 0.0
                      CHANNELS 3 Zrotation Yrotation Xrotation
                      JOINT LeftHandMiddle3
                      {
                        OFFSET 4.35652 -1e-06 4e-06
                        CHANNELS 3 Zrotation Yrotation Xrotation
                        JOINT LeftHandMiddle4
                        {
                          OFFSET 2.996877 0.0 8e-06
                          CHANNELS 3 Zrotation Yrotation Xrotation
                          JOINT LeftHandMiddleEnd
                          {
                            OFFSET 2.323256 3e-06 -4e-06
                            CHANNELS 3 Zrotation Yrotation Xrotation
                          }
                        }
                      }
                    }
                  }
                  JOINT LeftHandRing1
                  {
                    OFFSET 2.882606 -0.309162 0.107445
                    CHANNELS 3 Zrotation Yrotation Xrotation
                    JOINT LeftHandRing2
                    {
                      OFFSET 6.033198 0.0 4e-06
                      CHANNELS 3 Zrotation Yrotation Xrotation
                      JOINT LeftHandRing3
                      {
                        OFFSET 4.350578 3e-06 0.0
                        CHANNELS 3 Zrotation Yrotation Xrotation
                        JOINT LeftHandRing4
                        {
                          OFFSET 2.651321 2e-06 -7e-06
                          CHANNELS 3 Zrotation Yrotation Xrotation
                          JOINT LeftHandRingEnd
                          {
                            OFFSET 1.937663 1e-06 -4e-06
                            CHANNELS 3 Zrotation Yrotation Xrotation
                          }
                        }
                      }
                    }
                  }
                  JOINT LeftHandPinky1
                  {
                    OFFSET 2.865315 -1.525436 0.575687
                    CHANNELS 3 Zrotation Yrotation Xrotation
                    JOINT LeftHandPinky2
                    {
                      OFFSET 5.54936 1e-06 -8e-06
                      CHANNELS 3 Zrotation Yrotation Xrotation
                      JOINT LeftHandPinky3
                      {
                        OFFSET 3.070974 0.0 -4e-06
                        CHANNELS 3 Zrotation Yrotation Xrotation
                        JOINT LeftHandPinky4
                        {
                          OFFSET 1.549672 1e-06 0.0
                          CHANNELS 3 Zrotation Yrotation Xrotation
                          JOINT LeftHandPinkyEnd
                          {
                            OFFSET 1.952123 0.0 0.0
                            CHANNELS 3 Zrotation Yrotation Xrotation
                          }
                        }
                      }
                    }
                  }
                }
              }
            }
          }
          JOINT RightShoulder
          {
            OFFSET 23.161716 5.296122 -1.380114
            CHANNELS 3 Zrotation Yrotation Xrotation
            JOINT RightArm
            {
              OFFSET -16.027195 -2e-06 1.1e-05
              CHANNELS 3 Zrotation Yrotation Xrotation
              JOINT RightForeArm
              {
                OFFSET -28.736639 4e-06 2e-06
                CHANNELS 3 Zrotation Yrotation Xrotation
                JOINT RightHand
                {
                  OFFSET -27.133619 6e-06 0.0
                  CHANNELS 3 Zrotation Yrotation Xrotation
                  JOINT RightHandThumb1
                  {
                    OFFSET -2.274328 -3.351035 -0.83067
                    CHANNELS 3 Zrotation Yrotation Xrotation
                    JOINT RightHandThumb2
                    {
                      OFFSET -4.703594 -3e-06 2e-06
                      CHANNELS 3 Zrotation Yrotation Xrotation
                      JOINT RightHandThumb3
                      {
                        OFFSET -2.794935 -4e-06 -3e-06
                        CHANNELS 3 Zrotation Yrotation Xrotation
                        JOINT RightHandThumbEnd
                        {
                          OFFSET -3.183852 4e-06 1e-06
                          CHANNELS 3 Zrotation Yrotation Xrotation
                        }
                      }
                    }
                  }
                  JOINT RightHandIndex1
                  {
                    OFFSET -3.253496 -2.33755 -0.127667
                    CHANNELS 3 Zrotation Yrotation Xrotation
                    JOINT RightHandIndex2
                    {
                      OFFSET -6.344434 0.0 0.0
                      CHANNELS 3 Zrotation Yrotation Xrotation
                      JOINT RightHandIndex3
                      {
                        OFFSET -3.654871 0.0 -8e-06
                        CHANNELS 3 Zrotation Yrotation Xrotation
                        JOINT RightHandIndex4
                        {
                          OFFSET -2.327586 -1e-06 0.0
                          CHANNELS 3 Zrotation Yrotation Xrotation
                          JOINT RightHandIndexEnd
                          {
                            OFFSET -2.770001 3e-06 8e-06
                            CHANNELS 3 Zrotation Yrotation Xrotation
                          }
                        }
                      }
                    }
                  }
                  JOINT RightHandMiddle1
                  {
                    OFFSET -3.168223 -0.944764 0.411762
                    CHANNELS 3 Zrotation Yrotation Xrotation
                    JOINT RightHandMiddle2
                    {
                      OFFSET -6.266691 -1e-06 -4e-06
                      CHANNELS 3 Zrotation Yrotation Xrotation
                      JOINT RightHandMiddle3
                      {
                        OFFSET -4.348901 0.0 0.0
                        CHANNELS 3 Zrotation Yrotation Xrotation
                        JOINT RightHandMiddle4
                        {
                          OFFSET -3.00024 2e-06 -4e-06
                          CHANNELS 3 Zrotation Yrotation Xrotation
                          JOINT RightHandMiddleEnd
                          {
                            OFFSET -2.321477 -4e-06 -4e-06
                            CHANNELS 3 Zrotation Yrotation Xrotation
                          }
                        }
                      }
                    }
                  }
                  JOINT RightHandRing1
                  {
                    OFFSET -2.885654 0.293261 -0.119232
                    CHANNELS 3 Zrotation Yrotation Xrotation
                    JOINT RightHandRing2
                    {
                      OFFSET -6.032835 -1e-06 -4e-06
                      CHANNELS 3 Zrotation Yrotation Xrotation
                      JOINT RightHandRing3
                      {
                        OFFSET -4.33881 0.0 -4e-06
                        CHANNELS 3 Zrotation Yrotation Xrotation
                        JOINT RightHandRing4
                        {
                          OFFSET -2.654903 -4e-06 -4e-06
                          CHANNELS 3 Zrotation Yrotation Xrotation
                          JOINT RightHandRingEnd
                          {
                            OFFSET -1.935122 0.0 4e-06
                            CHANNELS 3 Zrotation Yrotation Xrotation
                          }
                        }
                      }
                    }
                  }
                  JOINT RightHandPinky1
                  {
                    OFFSET -2.866241 1.503904 -0.60527
                    CHANNELS 3 Zrotation Yrotation Xrotation
                    JOINT RightHandPinky2
                    {
                      OFFSET -5.553177 -2e-06 0.0
                      CHANNELS 3 Zrotation Yrotation Xrotation
                      JOINT RightHandPinky3
                      {
                        OFFSET -3.062664 -1e-06 -4e-06
                        CHANNELS 3 Zrotation Yrotation Xrotation
                        JOINT RightHandPinky4
                        {
                          OFFSET -1.546529 2e-06 4e-06
                          CHANNELS 3 Zrotation Yrotation Xrotation
                          JOINT RightHandPinkyEnd
                          {
                            OFFSET -1.952341 0.0 -4e-06
                            CHANNELS 3 Zrotation Yrotation Xrotation
                          }
                        }
                      }
                    }
                  }
                }
              }
            }
          }
        }
      }
    }
    JOINT LeftLeg
    {
      OFFSET -8.443107 2.567604 10.043214
      CHANNELS 3 Zrotation Yrotation Xrotation
      JOINT LeftShin
      {
        OFFSET 43.229198 1e-06 -1e-06
        CHANNELS 3 Zrotation Yrotation Xrotation
        JOINT LeftFoot
        {
          OFFSET 42.298611 1e-06 1e-06
          CHANNELS 3 Zrotation Yrotation Xrotation
          JOINT LeftToeBase
          {
            OFFSET 14.165858 1e-06 0.0
            CHANNELS 3 Zrotation Yrotation Xrotation
            JOINT LeftToeEnd
            {
              OFFSET 6.7141 -0.234461 0.0
              CHANNELS 3 Zrotation Yrotation Xrotation
            }
          }
        }
      }
    }
    JOINT RightLeg
    {
      OFFSET -8.303923 2.592729 -10.047278
      CHANNELS 3 Zrotation Yrotation Xrotation
      JOINT RightShin
      {
        OFFSET -43.369682 0.0 1e-06
        CHANNELS 3 Zrotation Yrotation Xrotation
        JOINT RightFoot
        {
          OFFSET -42.260784 4e-06 2e-06
          CHANNELS 3 Zrotation Yrotation Xrotation
          JOINT RightToeBase
          {
            OFFSET -14.222245 -2e-06 -1e-06
            CHANNELS 3 Zrotation Yrotation Xrotation
            JOINT RightToeEnd
            {
              OFFSET -6.660062 0.232574 -2e-06
              CHANNELS 3 Zrotation Yrotation Xrotation
            }
          }
        }
      }
    }
  }
}
MOTION
Frames: 4
Frame Time: 0.03333333333333333
0.0 0.0 0.0 0.0 -0.0 0.0 1.091328 44.012314 -2.387508 88.256836 -45.18396 91.079964 17.663029 0.726304 -1.066371 -3.539873 -0.088927 -1.144674 21.487898 2.511386 -2.18479 35.889542 -2.849271 1.909711 -2.985332 -0.731925 0.638974 -33.686932 -2.958539 -0.579275 6e-06 -0.0 0.0 -0.114169 0.110631 -0.056836 0.063159 0.066106 0.060243 0.00563 0.159964 -0.16814 -58.849483 -75.301292 65.2836 75.852158 1.472921 -3.541734 20.996326 -0.088893 0.414167 2.831028 61.302887 7.581969 17.636629 -26.322731 52.41119 -19.46666 -14.3956 29.410389 -0.0 -8.774821 -2e-06 16.672297 -17.711973 6.049254 -0.609776 -1.795654 -3.889327 -4.807088 -11.046809 -2.93785 4e-06 -20.976017 -0.0 -5.019971 -25.033554 -4.03188 6e-06 0.0 0.0 -10.634533 -5.686969 -3.565587 10.573272 -17.922945 -3.1139 2e-06 -13.821206 1e-06 -0.501777 -31.181501 -4.027016 -11.621543 -60.727036 8.054927 -13.982714 -7.150198 -2.875041 13.77273 -8.401493 -3.218242 0.347733 -34.211544 0.771655 -0.963029 -17.73337 2.621019 0.0 -0.0 -0.0 -17.346416 -20.095215 -4.201783 21.757557 -1.638374 3.866427 0.0 -6.338823 0.0 -1.697589 -22.591742 -6.194005 -0.0 -4e-06 -2e-06 153.546402 -80.478798 32.010414 84.430443 -5.175046 -17.524683 23.175196 0.143734 0.073792 -31.840805 68.309822 -34.270592 22.182114 -20.375898 49.933319 -16.701817 -16.74353 28.476526 -1e-06 -12.690605 -2e-06 15.898469 -18.163824 2.674361 -0.105921 -1.513856 -4.275879 -5.039037 -5.612873 -2.953556 3e-06 -11.020525 -2e-06 -6.111299 -15.89533 -3.840469 -1e-06 1e-06 0.0 -10.283371 -5.68029 -4.341837 11.028294 -11.302404 -2.372633 -1.38427 -14.238583 -6.320121 -0.625441 -26.924194 -3.827599 -4.45832 -49.025986 -4.569876 -13.708527 -7.363476 -3.720937 18.141148 -14.052739 -3.242674 4e-06 -18.787271 -1e-06 -0.429712 -8.456043 2.555503 -0.0 -1e-06 0.0 -15.923536 -20.094484 -5.473581 30.41921 -7.190824 1.735923 4e-06 -8.162925 -0.0 -1.861904 -22.861467 -6.167942 -0.0 -3e-06 -1e-06 111.022278 -9.665606 9.953178 143.046585 -0.079842 0.247323 -113.658371 13.201846 10.427088 -36.816242 1.887974 1.583628 -1.000004 -0.0 1e-06 -69.781776 -12.411884 9.866457 144.782883 0.196439 0.303593 -118.635155 16.523172 2.495933 -32.753204 1.058131 1.595843 -1.000004 0.0 0.0 
0.0 0.0 0.0 0.0 -0.0 0.0 1.08319 43.987171 -2.341817 88.030655 -45.177097 91.236275 17.691265 0.784596 -1.076847 -3.573086 -0.111528 -1.091308 21.496891 2.555161 -2.093815 35.706753 -2.829445 1.875457 -2.968835 -0.715486 0.582746 -33.605171 -3.00565 -0.617372 7e-06 -0.0 0.0 -0.115007 0.089794 -0.05913 0.08901 0.039127 0.062288 0.016377 0.147371 -0.176249 -59.050037 -75.356216 65.673035 75.905746 1.541824 -3.90476 20.825249 -0.145352 0.399729 4.015051 61.371956 8.559719 17.636625 -26.322725 52.411194 -19.466652 -14.395597 29.410385 -1e-06 -8.774819 -2e-06 16.583803 -17.749508 6.101055 -0.609777 -1.795654 -3.889326 -4.807088 -11.046808 -2.93785 4e-06 -20.976015 -1e-06 -5.019969 -25.033552 -4.03188 6e-06 -1e-06 0.0 -10.634531 -5.686971 -3.565587 10.573271 -17.922945 -3.1139 2e-06 -13.821206 0.0 -0.501778 -31.181501 -4.027015 -11.481333 -60.768734 7.9587 -13.982712 -7.150198 -2.875041 13.772729 -8.401491 -3.218241 0.347733 -34.211544 0.771655 -0.963029 -17.733366 2.621019 0.0 0.0 -0.0 -17.346413 -20.095215 -4.20178 21.757555 -1.638372 3.866427 1e-06 -6.338824 1e-06 -1.697589 -22.591743 -6.194006 0.0 -4e-06 -2e-06 153.657532 -80.473564 31.941414 84.481911 -5.231715 -17.72427 22.87067 0.160444 0.077723 -31.404745 68.319504 -34.240185 22.182116 -20.375898 49.933319 -16.701811 -16.743528 28.476528 0.0 -12.690604 -3e-06 15.821817 -18.0975 2.722816 -0.105923 -1.513856 -4.275881 -5.039037 -5.612871 -2.953557 3e-06 -11.020525 -1e-06 -6.111298 -15.89533 -3.840471 -1e-06 -0.0 0.0 -10.283371 -5.680288 -4.341839 11.028292 -11.302404 -2.372633 -1.38427 -14.238583 -6.320121 -0.62544 -26.924187 -3.827601 -4.449854 -48.995945 -4.5112 -13.708524 -7.363478 -3.720939 18.141146 -14.052737 -3.242672 3e-06 -18.787271 0.0 -0.429712 -8.456043 2.555504 -1e-06 -1e-06 -1e-06 -15.923536 -20.094482 -5.473583 30.41921 -7.190824 1.735926 3e-06 -8.162929 -1e-06 -1.861902 -22.861467 -6.167941 -0.0 -3e-06 -1e-06 111.020226 -9.781081 10.124372 142.991882 -0.08838 0.259142 -113.399925 13.301645 10.40606 -36.562366 1.880896 1.538515 -1.0 1e-06 -1e-06 -69.624855 -12.308666 9.632434 144.70694 0.206084 0.308058 -118.595581 16.43965 2.619712 -32.546936 1.046452 1.595225 -1.000004 0.0 0.0 
0.0 0.0 0.0 0.0 -0.0 0.0 1.083513 43.951931 -2.316911 87.920975 -45.154118 91.326134 17.669634 0.796221 -1.059724 -3.584868 -0.112618 -1.031817 21.537388 2.576793 -2.042343 35.620129 -2.812439 1.810971 -2.95899 -0.781566 0.489081 -33.612057 -3.072069 -0.657256 5e-06 -0.0 -0.0 -0.108934 0.059977 -0.057235 0.078513 0.00425 0.060142 0.001811 0.123592 -0.173145 -58.828018 -75.399368 65.615013 75.889465 1.639171 -3.949185 20.835403 -0.106462 0.407369 4.499013 61.260849 8.844297 17.636627 -26.322733 52.411201 -19.466661 -14.395602 29.410395 -0.0 -8.774822 -2e-06 16.520226 -17.749372 6.125106 -0.609776 -1.795654 -3.889329 -4.807089 -11.046811 -2.937851 4e-06 -20.976015 -1e-06 -5.019971 -25.033556 -4.031882 6e-06 -0.0 -0.0 -10.634534 -5.686971 -3.565588 10.573275 -17.922949 -3.113901 2e-06 -13.821209 1e-06 -0.501777 -31.181505 -4.027016 -11.359305 -60.778782 7.865004 -13.982715 -7.150198 -2.875042 13.772731 -8.401491 -3.218243 0.347733 -34.211552 0.771654 -0.963029 -17.73337 2.62102 -0.0 0.0 -0.0 -17.34642 -20.095219 -4.201783 21.757561 -1.638372 3.866428 1e-06 -6.338823 1e-06 -1.697589 -22.591745 -6.194006 -0.0 -4e-06 -2e-06 154.155792 -80.445213 31.498243 84.359352 -5.282406 -17.885883 22.712645 0.129011 0.066992 -31.191521 68.459991 -34.160187 22.182117 -20.3759 49.933346 -16.701817 -16.74353 28.476538 -3e-06 -12.690605 -2e-06 15.780927 -18.007357 2.762306 -0.105919 -1.513856 -4.275883 -5.039039 -5.612872 -2.953557 4e-06 -11.020525 -2e-06 -6.1113 -15.895334 -3.840472 -0.0 -0.0 0.0 -10.283371 -5.68029 -4.34184 11.028296 -11.302404 -2.372635 -1.384267 -14.238585 -6.320124 -0.625436 -26.924192 -3.827604 -4.434718 -48.953758 -4.425743 -13.708526 -7.363479 -3.720941 18.14115 -14.05274 -3.242677 5e-06 -18.787271 -2e-06 -0.429711 -8.456043 2.555504 -1e-06 -1e-06 0.0 -15.923536 -20.094486 -5.473589 30.419218 -7.190827 1.735922 4e-06 -8.162928 -1e-06 -1.861903 -22.861473 -6.167944 -0.0 -3e-06 -0.0 111.054535 -9.842245 10.176395 142.973709 -0.10585 0.259537 -113.256851 13.343401 10.404078 -36.397797 1.877477 1.522541 -1.0 0.0 -1e-06 -69.490173 -12.219678 9.536044 144.673325 0.205758 0.324749 -118.591675 16.353022 2.634745 -32.417526 1.035225 1.605956 -1.000003 0.0 0.0 
0.0 0.0 0.0 0.0 -0.0 0.0 1.060111 43.926254 -2.306348 87.820076 -45.148632 91.443863 17.635109 0.79877 -1.037472 -3.601156 -0.119739 -0.986582 21.573872 2.625287 -2.020875 35.566914 -2.843342 1.727612 -2.947773 -0.862436 0.385366 -33.72971 -3.117496 -0.670431 7e-06 0.0 -0.0 -0.103941 0.028161 -0.053258 0.056288 -0.033057 0.059557 -0.016939 0.096878 -0.166679 -58.605907 -75.41626 65.514061 75.867653 1.728958 -4.016193 20.944981 -0.073296 0.404437 4.889832 61.189499 9.316523 17.636625 -26.322737 52.411201 -19.466663 -14.395598 29.410395 0.0 -8.774822 -2e-06 16.473129 -17.741079 6.14808 -0.609777 -1.795654 -3.889328 -4.807089 -11.046811 -2.93785 4e-06 -20.976019 -1e-06 -5.01997 -25.033558 -4.031881 6e-06 -1e-06 0.0 -10.634535 -5.686972 -3.565588 10.573275 -17.922951 -3.113901 2e-06 -13.821209 1e-06 -0.501778 -31.181505 -4.027016 -11.336939 -60.820385 7.813117 -13.982714 -7.150198 -2.875042 13.772731 -8.401495 -3.218242 0.347732 -34.211555 0.771656 -0.963029 -17.73337 2.62102 -0.0 -0.0 -0.0 -17.34642 -20.095219 -4.201782 21.757559 -1.638373 3.866427 0.0 -6.338824 0.0 -1.69759 -22.591745 -6.194006 -0.0 -2e-06 -2e-06 154.698685 -80.357162 30.954237 84.181206 -5.416519 -18.049349 22.712475 0.121943 0.054122 -31.086504 68.558342 -34.116978 22.182117 -20.3759 49.933342 -16.701818 -16.743528 28.47654 -2e-06 -12.690605 -2e-06 15.782935 -17.938696 2.781265 -0.105919 -1.513857 -4.275883 -5.039043 -5.612871 -2.953557 5e-06 -11.020523 -3e-06 -6.111296 -15.89533 -3.840474 -1e-06 1e-06 2e-06 -10.283374 -5.680287 -4.341841 11.028296 -11.302409 -2.372636 -1.384269 -14.238584 -6.320124 -0.625434 -26.924191 -3.827602 -4.418545 -48.970608 -4.336514 -13.708529 -7.363479 -3.720942 18.141157 -14.052739 -3.242676 8e-06 -18.787271 -2e-06 -0.429711 -8.456043 2.555505 -0.0 -1e-06 -2e-06 -15.923536 -20.094484 -5.473591 30.419218 -7.190832 1.735925 5e-06 -8.162925 -1e-06 -1.861902 -22.861469 -6.167942 0.0 -4e-06 -0.0 111.039558 -9.871258 10.300529 142.979172 -0.118064 0.259796 -113.211517 13.40964 10.40437 -36.402267 1.880289 1.525139 -1.000001 -0.0 0.0 -69.385818 -12.129052 9.45252 144.6633 0.232627 0.342401 -118.612495 16.241291 2.586287 -32.422447 1.029844 1.62133 -1.000003 0.0 0.0 
